<svg width="57" height="57" viewBox="0 0 57 57" fill="none" xmlns="http://www.w3.org/2000/svg">
<circle cx="28.5" cy="28.5" r="28" stroke="black"/>
<circle cx="27.36" cy="17.96" r="6.49" stroke="black" stroke-width="0.7"/>
<path fill-rule="evenodd" clip-rule="evenodd" d="M38.0721 33.2666C38.0747 33.1979 38.076 33.129 38.076 33.06C38.076 29.1806 33.9586 25.764 28.5 25.764C23.2589 25.764 19.2543 28.9137 18.9434 32.5986L18.2587 32.5747C18.5812 28.3935 23.0431 25.08 28.5 25.08C34.1664 25.08 38.76 28.6528 38.76 33.06C38.76 33.1371 38.7586 33.2139 38.7558 33.2905L38.0721 33.2666Z" fill="black"/>
<path d="M41.4692 38.9575V30.7189H41.9237V38.9575H41.4692ZM37.5771 35.0655V34.6109H45.8158V35.0655H37.5771Z" fill="black"/>
</svg>
